<svg width="458" height="301" viewBox="0 0 458 301" fill="none" xmlns="http://www.w3.org/2000/svg">
<path d="M334.084 174.928C332.962 174.673 332.147 174.52 331.637 174.469C331.127 174.367 330.515 174.316 329.801 174.316C328.781 174.316 327.915 174.367 327.201 174.469C326.487 174.52 325.824 174.597 325.212 174.699C324.651 174.75 324.116 174.801 323.606 174.852C323.147 174.903 322.612 174.928 322 174.928V172.632C322.612 172.632 323.224 172.555 323.836 172.402C324.498 172.198 325.059 171.892 325.518 171.484C326.028 171.075 326.436 170.539 326.742 169.876C327.099 169.213 327.277 168.371 327.277 167.35V137.113C327.277 132.928 327.226 129.611 327.124 127.162C327.073 124.712 326.869 122.849 326.512 121.574C326.156 120.298 325.646 119.481 324.983 119.124C324.32 118.767 323.402 118.588 322.229 118.588V116.292C323.504 116.292 324.575 116.215 325.442 116.062C326.359 115.909 327.175 115.679 327.889 115.373C328.603 115.067 329.266 114.71 329.878 114.301C330.489 113.893 331.152 113.459 331.866 113H334.161V145.227C335.486 143.288 337.041 141.783 338.826 140.711C340.662 139.639 342.956 139.103 345.709 139.103C348.055 139.103 350.222 139.512 352.21 140.328C354.199 141.094 355.907 142.242 357.335 143.773C358.813 145.253 359.96 147.115 360.776 149.361C361.592 151.555 362 154.081 362 156.939C362 159.797 361.567 162.4 360.7 164.747C359.884 167.095 358.711 169.111 357.182 170.795C355.652 172.428 353.842 173.704 351.751 174.622C349.661 175.541 347.366 176 344.868 176C340.075 176 336.481 174.188 334.084 170.565V174.928ZM334.084 157.552C334.084 159.542 334.288 161.43 334.696 163.216C335.155 165.002 335.818 166.584 336.685 167.962C337.551 169.34 338.648 170.437 339.973 171.254C341.35 172.019 342.956 172.402 344.792 172.402C346.78 172.402 348.386 171.943 349.61 171.024C350.885 170.106 351.879 168.957 352.593 167.58C353.358 166.151 353.867 164.569 354.122 162.834C354.428 161.098 354.581 159.389 354.581 157.705C354.581 152.857 353.689 149.157 351.904 146.605C350.12 144.002 347.774 142.701 344.868 142.701C343.542 142.701 342.242 143.007 340.967 143.62C339.693 144.181 338.546 145.074 337.526 146.299C336.506 147.524 335.665 149.08 335.002 150.968C334.39 152.806 334.084 155 334.084 157.552Z" fill="white"/>
<path d="M299.702 165.571C300.398 165.851 301.122 166.062 301.874 166.203C302.645 166.297 303.416 166.257 304.187 166.082C305.023 165.88 305.855 165.487 306.683 164.903C307.576 164.292 308.502 163.398 309.461 162.221C310.529 162.65 311.307 163.26 311.798 164.051C312.288 164.841 312.319 165.77 311.889 166.837C311.497 167.812 310.817 168.562 309.85 169.09C308.93 169.636 307.824 169.972 306.533 170.099C305.306 170.199 303.941 170.108 302.438 169.826C300.98 169.563 299.509 169.132 298.024 168.535C295.472 167.507 293.381 166.207 291.75 164.634C290.137 163.015 288.971 161.224 288.251 159.263C287.549 157.255 287.271 155.068 287.415 152.7C287.606 150.35 288.206 147.923 289.214 145.418C291.306 140.221 294.318 136.689 298.251 134.822C302.183 132.954 306.678 133.038 311.736 135.074C312.339 135.317 312.932 135.583 313.517 135.872C314.101 136.161 314.611 136.501 315.047 136.892C315.501 137.237 315.826 137.637 316.02 138.092C316.232 138.502 316.245 138.938 316.059 139.402C316.755 139.682 317.395 140.101 317.978 140.66C318.609 141.237 319.113 141.926 319.492 142.725C319.918 143.543 320.139 144.468 320.155 145.499C320.236 146.502 320.034 147.607 319.549 148.813C318.858 150.53 317.871 151.777 316.587 152.554C315.304 153.331 313.873 153.807 312.293 153.98C310.779 154.125 309.201 154.029 307.557 153.691C305.979 153.325 304.518 152.872 303.172 152.33C301.641 151.714 300.249 151.019 298.997 150.245C297.792 149.49 296.79 148.764 295.993 148.065L295.881 148.344C295.096 150.292 294.531 152.167 294.183 153.968C293.835 155.769 293.767 157.413 293.977 158.899C294.253 160.358 294.83 161.669 295.71 162.832C296.655 163.967 297.986 164.88 299.702 165.571ZM309.862 138.121C307.357 137.112 305.067 137.242 302.993 138.51C300.919 139.778 299.053 141.938 297.393 144.99C297.976 145.817 298.903 146.595 300.174 147.322C301.51 148.022 302.804 148.623 304.057 149.128C306.562 150.136 308.461 150.442 309.753 150.046C311.091 149.668 312.152 148.504 312.936 146.556C313.87 144.236 313.981 142.421 313.269 141.109C312.575 139.752 311.44 138.756 309.862 138.121Z" fill="white"/>
<path d="M278.158 172.025C278.158 172.964 278.298 173.739 278.579 174.35C278.906 174.96 279.281 175.454 279.702 175.829C280.17 176.205 280.684 176.487 281.246 176.675C281.854 176.816 282.439 176.886 283 176.886V179C282.439 179 281.807 178.977 281.105 178.93C280.45 178.836 279.749 178.742 279 178.648C278.251 178.554 277.526 178.483 276.825 178.436C276.17 178.342 275.561 178.295 275 178.295C274.439 178.295 273.807 178.342 273.105 178.436C272.45 178.483 271.749 178.554 271 178.648C270.251 178.742 269.526 178.836 268.825 178.93C268.17 178.977 267.561 179 267 179V176.886C268.263 176.886 269.386 176.534 270.368 175.829C271.351 175.125 271.842 173.857 271.842 172.025V135.528C271.842 133.79 271.795 132.357 271.702 131.23C271.655 130.056 271.468 129.163 271.14 128.553C270.813 127.895 270.345 127.449 269.737 127.214C269.129 126.932 268.287 126.791 267.211 126.791V125.03C268.38 125.03 269.386 124.959 270.228 124.818C271.117 124.677 271.912 124.466 272.614 124.184C273.316 123.902 273.947 123.574 274.509 123.198C275.117 122.822 275.749 122.423 276.404 122H278.158V172.025Z" fill="white"/>
<path d="M264.568 152.431C264.743 153.1 264.99 153.626 265.307 154.007C265.658 154.38 266.021 154.66 266.396 154.847C266.805 155.026 267.23 155.129 267.672 155.156C268.138 155.141 268.575 155.08 268.981 154.973L269.376 156.478C268.597 156.683 267.903 156.793 267.292 156.811C266.715 156.819 266.037 156.926 265.258 157.13C264.479 157.335 263.806 157.529 263.239 157.714C262.673 157.898 262.026 158.193 261.3 158.598L260.602 155.939C260.051 157.013 259.326 158.044 258.427 159.03C257.519 159.984 256.286 160.665 254.728 161.074C253.475 161.403 252.28 161.538 251.143 161.479C250.039 161.411 249.031 161.157 248.119 160.717C247.241 160.268 246.485 159.662 245.85 158.9C245.207 158.103 244.741 157.153 244.451 156.049C244.17 154.979 244.123 153.973 244.31 153.03C244.522 152.045 244.943 151.166 245.572 150.393C246.193 149.586 246.989 148.895 247.96 148.318C248.922 147.708 250.046 147.234 251.333 146.897C252.789 146.514 254.065 146.34 255.159 146.375C256.279 146.367 257.277 146.445 258.153 146.608L257.665 144.752C257.437 143.882 257.141 143.03 256.777 142.196C256.448 141.353 256.021 140.625 255.498 140.012C254.975 139.398 254.335 138.959 253.577 138.693C252.82 138.427 251.933 138.427 250.917 138.694C250.477 138.809 249.999 138.988 249.484 139.231C249.002 139.465 248.576 139.773 248.206 140.156C247.827 140.506 247.543 140.938 247.352 141.453C247.153 141.934 247.136 142.493 247.303 143.128C247.391 143.463 247.543 143.834 247.758 144.242C247.321 144.643 246.797 144.923 246.188 145.083C245.239 145.332 244.479 145.264 243.907 144.877C243.327 144.458 242.949 143.914 242.773 143.245C242.597 142.576 242.664 141.933 242.972 141.316C243.306 140.656 243.896 140.215 244.743 139.993C244.646 139.625 244.732 139.263 245.001 138.906C245.269 138.55 245.656 138.234 246.163 137.958C246.695 137.639 247.291 137.358 247.95 137.113C248.61 136.868 249.296 136.653 250.007 136.466C251.531 136.066 252.933 135.895 254.215 135.951C255.522 135.966 256.696 136.301 257.737 136.957C258.803 137.571 259.745 138.54 260.563 139.862C261.372 141.151 262.061 142.883 262.632 145.057L264.568 152.431ZM255.545 158.393C256.73 158.082 257.675 157.476 258.38 156.576C259.076 155.643 259.602 154.611 259.957 153.481L258.64 148.464C257.764 148.301 256.822 148.226 255.812 148.241C254.794 148.222 253.811 148.338 252.862 148.586C251.508 148.942 250.445 149.65 249.673 150.71C248.936 151.762 248.76 153.024 249.147 154.495C249.55 156.034 250.337 157.168 251.506 157.898C252.675 158.628 254.021 158.793 255.545 158.393Z" fill="white"/>
<path d="M217.299 166.835C217.137 167.871 217.246 168.729 217.627 169.407C218.007 170.086 218.497 170.627 219.098 171.031C219.748 171.398 220.434 171.682 221.154 171.883C221.875 172.084 222.494 172.225 223.012 172.306L222.587 175.027C222.069 174.946 221.381 174.816 220.524 174.638C219.718 174.423 218.867 174.202 217.974 173.974C217.081 173.746 216.206 173.542 215.349 173.364C214.542 173.15 213.88 173.002 213.362 172.921C212.843 172.84 212.146 172.775 211.269 172.726C210.442 172.641 209.568 172.571 208.648 172.516C207.727 172.46 206.829 172.408 205.952 172.359C205.124 172.274 204.452 172.191 203.934 172.11L204.359 169.39C204.92 169.478 205.575 169.536 206.322 169.564C207.113 169.599 207.852 169.538 208.541 169.38C209.236 169.179 209.846 168.81 210.372 168.273C210.942 167.743 211.308 166.96 211.47 165.923L217.576 126.868C217.785 125.529 217.426 124.434 216.497 123.581C215.619 122.692 214.273 122.105 212.46 121.822C212.574 121.088 212.931 120.502 213.531 120.065C214.136 119.584 215.087 119.446 216.382 119.648C217.505 119.824 218.468 120.173 219.271 120.697C220.117 121.227 220.776 121.817 221.25 122.466C221.899 121.992 222.686 121.629 223.61 121.375C224.578 121.128 225.623 121.093 226.745 121.268C228.041 121.471 228.904 121.893 229.334 122.536C229.771 123.135 229.932 123.801 229.818 124.535C228.047 124.259 226.587 124.406 225.436 124.978C224.291 125.507 223.614 126.441 223.405 127.779L219.972 149.736L236.725 135.104C237.181 134.733 237.747 134.224 238.423 133.578C239.099 132.931 239.779 132.264 240.461 131.574C241.144 130.885 241.734 130.225 242.231 129.595C242.727 128.965 243.009 128.434 243.077 128.002C243.138 127.613 243.009 127.306 242.69 127.079C242.422 126.816 242.054 126.625 241.585 126.508C241.167 126.354 240.72 126.24 240.245 126.166C239.77 126.092 239.364 126.006 239.025 125.909C239.136 125.484 239.366 125.144 239.715 124.889C240.071 124.59 240.461 124.364 240.883 124.209C241.349 124.06 241.826 123.98 242.314 123.968C242.803 123.956 243.263 123.984 243.695 124.051C244.415 124.252 245.076 124.554 245.676 124.958C246.326 125.325 246.832 125.913 247.192 126.721C247.755 126.234 248.48 125.839 249.368 125.535C250.299 125.238 251.326 125.178 252.448 125.353C253.442 125.509 254.25 125.856 254.873 126.396C255.546 126.899 255.83 127.629 255.725 128.586C255.596 128.566 255.488 128.549 255.401 128.535C255.322 128.479 255.174 128.434 254.958 128.4C253.792 128.217 252.541 128.442 251.203 129.073C249.909 129.712 248.635 130.508 247.38 131.461C246.125 132.415 244.928 133.422 243.789 134.483C242.7 135.507 241.796 136.339 241.076 136.978L231.662 144.995L245.214 171.199C245.69 172.114 246.273 172.913 246.963 173.596C247.652 174.279 248.377 174.879 249.136 175.396C249.903 175.869 250.639 176.25 251.346 176.537C252.103 176.788 252.763 176.958 253.324 177.046L252.899 179.766C252.38 179.685 251.607 179.542 250.577 179.337C249.597 179.095 248.553 178.843 247.444 178.581C246.335 178.319 245.265 178.086 244.236 177.881C243.256 177.639 242.507 177.478 241.989 177.397C241.471 177.316 240.73 177.244 239.767 177.182C238.81 177.077 237.807 176.986 236.757 176.91C235.707 176.835 234.701 176.766 233.737 176.704C232.824 176.605 232.108 176.515 231.59 176.434L232.015 173.714C232.533 173.795 233.12 173.865 233.774 173.923C234.478 173.944 235.146 173.916 235.778 173.838C236.409 173.76 236.946 173.578 237.389 173.294C237.875 173.016 238.165 172.574 238.259 171.97C238.374 171.236 238.255 170.443 237.901 169.592C237.555 168.697 237.294 168.103 237.118 167.81L227.216 148.812L219.031 155.759L217.299 166.835Z" fill="white"/>
<path d="M196 158.399C196 157.181 196.419 156.152 197.257 155.314C198.133 154.438 199.181 154 200.399 154C201.58 154 202.59 154.438 203.428 155.314C204.304 156.152 204.742 157.181 204.742 158.399C204.742 159.618 204.304 160.666 203.428 161.542C202.59 162.38 201.58 162.799 200.399 162.799C199.181 162.799 198.133 162.38 197.257 161.542C196.419 160.666 196 159.618 196 158.399Z" fill="white"/>
<path d="M167.512 152.055C167.512 149.503 167.378 147.37 167.112 145.656C166.883 143.942 166.521 142.571 166.026 141.542C165.531 140.514 164.902 139.79 164.141 139.371C163.379 138.914 162.503 138.685 161.512 138.685C160.522 138.685 159.57 138.876 158.656 139.257C157.779 139.638 156.999 140.247 156.313 141.085C155.627 141.885 155.075 142.952 154.656 144.285C154.275 145.58 154.085 147.142 154.085 148.97V157.083C154.085 157.845 154.199 158.474 154.427 158.969C154.694 159.464 154.999 159.864 155.342 160.169C155.723 160.473 156.142 160.702 156.599 160.854C157.094 160.969 157.57 161.026 158.027 161.026V162.74C157.57 162.74 157.056 162.721 156.484 162.683C155.951 162.606 155.38 162.53 154.77 162.454C154.161 162.378 153.57 162.321 152.999 162.283C152.466 162.206 151.971 162.168 151.514 162.168C151.056 162.168 150.542 162.206 149.971 162.283C149.438 162.321 148.866 162.378 148.257 162.454C147.647 162.53 147.057 162.606 146.486 162.683C145.952 162.721 145.457 162.74 145 162.74V161.026C146.028 161.026 146.943 160.74 147.743 160.169C148.542 159.597 148.942 158.569 148.942 157.083V147.542C148.942 146.132 148.904 144.97 148.828 144.056C148.79 143.104 148.638 142.38 148.371 141.885C148.104 141.352 147.723 140.99 147.228 140.799C146.733 140.571 146.047 140.457 145.171 140.457V139.028C146.124 139.028 146.943 138.971 147.628 138.857C148.352 138.743 149 138.571 149.571 138.343C150.142 138.114 150.656 137.847 151.114 137.543C151.609 137.238 152.123 136.914 152.656 136.571H154.085V140.571C154.808 139.238 155.799 138.152 157.056 137.314C158.351 136.438 159.874 136 161.627 136C165.398 136 168.178 137.143 169.969 139.428C171.759 141.714 172.654 145.504 172.654 150.798V156.798C172.654 157.559 172.768 158.188 172.997 158.683C173.263 159.178 173.568 159.578 173.911 159.883C174.292 160.188 174.711 160.416 175.168 160.569C175.663 160.683 176.139 160.74 176.596 160.74V162.74C176.101 162.74 175.663 162.721 175.282 162.683C174.901 162.606 174.501 162.549 174.082 162.511C173.701 162.435 173.244 162.378 172.711 162.34C172.216 162.264 171.606 162.226 170.883 162.226C170.388 162.226 169.816 162.264 169.169 162.34C168.559 162.378 167.816 162.511 166.94 162.74L166.426 161.768C166.693 161.502 166.902 161.026 167.055 160.34C167.207 159.616 167.302 158.797 167.34 157.883C167.416 156.969 167.455 155.998 167.455 154.969C167.493 153.941 167.512 152.969 167.512 152.055Z" fill="white"/>
<path d="M139.365 179.46C139.365 181.524 139.745 183.158 140.506 184.362C141.351 185.566 142.323 186.469 143.422 187.071C144.606 187.587 145.831 187.931 147.099 188.103C148.452 188.275 149.635 188.361 150.65 188.361V193.779C149.635 193.779 148.367 193.736 146.846 193.65C145.324 193.478 143.76 193.306 142.154 193.134C140.548 192.962 138.984 192.833 137.463 192.747C135.941 192.575 134.673 192.489 133.659 192.489C132.644 192.489 131.376 192.575 129.855 192.747C128.333 192.833 126.769 192.962 125.163 193.134C123.557 193.306 121.993 193.478 120.472 193.65C118.95 193.736 117.682 193.779 116.668 193.779V188.361C117.767 188.361 118.993 188.275 120.345 188.103C121.698 187.931 122.923 187.587 124.022 187.071C125.121 186.469 126.051 185.566 126.812 184.362C127.573 183.158 127.953 181.524 127.953 179.46V128.377C127.953 125.195 127.868 122.572 127.699 120.508C127.615 118.358 127.277 116.724 126.685 115.606C126.093 114.402 125.248 113.585 124.149 113.155C123.05 112.639 121.529 112.381 119.584 112.381V107.866C121.698 107.866 123.515 107.737 125.037 107.479C126.643 107.221 128.08 106.834 129.348 106.318C130.616 105.802 131.757 105.2 132.771 104.512C133.87 103.824 135.011 103.093 136.195 102.319H139.365V179.46ZM141.267 88C150.734 88 158.765 89.591 165.358 92.773C171.952 95.9549 177.277 100.341 181.335 105.931C185.477 111.435 188.435 117.971 190.21 125.539C192.07 133.021 193 141.105 193 149.791C193 160.54 191.732 169.871 189.196 177.783C186.66 185.695 182.941 192.274 178.038 197.52C173.135 202.766 167.133 206.636 160.033 209.13C153.017 211.71 145.028 213 136.068 213C131.25 213 126.558 212.613 121.993 211.839C117.513 211.065 113.54 209.904 110.075 208.356C106.609 206.808 103.819 204.873 101.706 202.551C99.5926 200.315 98.5359 197.735 98.5359 194.811C98.5359 192.747 99.1699 191.5 100.438 191.07C100.015 190.812 99.5503 190.253 99.0431 189.393C98.5359 188.533 98.071 187.501 97.6484 186.297C97.2257 185.007 96.8453 183.588 96.5072 182.04C96.1691 180.406 96 178.772 96 177.138C96 175.848 96.1268 174.386 96.3804 172.752C96.7185 171.032 97.3102 169.398 98.1556 167.85C99.0854 166.216 100.353 164.754 101.959 163.464C103.65 162.174 105.848 161.271 108.553 160.755L109.314 161.4C108.384 163.55 107.75 165.872 107.412 168.366C107.158 170.774 107.031 173.096 107.031 175.332C107.031 180.148 107.539 184.276 108.553 187.716C109.652 191.156 111.047 194.037 112.737 196.359C114.428 198.681 116.33 200.53 118.443 201.906C120.641 203.282 122.839 204.314 125.037 205.002C127.319 205.776 129.517 206.249 131.63 206.421C133.828 206.679 135.73 206.808 137.336 206.808C144.944 206.808 151.41 205.518 156.736 202.938C162.146 200.444 166.542 196.789 169.923 191.973C173.304 187.071 175.756 181.094 177.277 174.042C178.883 166.99 179.686 158.949 179.686 149.92C179.686 142.782 179.01 135.859 177.658 129.151C176.305 122.443 174.065 116.509 170.937 111.349C167.81 106.189 163.668 102.061 158.511 98.9649C153.439 95.7829 147.184 94.192 139.745 94.192C133.405 94.192 128.207 95.1809 124.149 97.1589C120.092 99.0509 116.837 101.631 114.386 104.899C112.019 108.081 110.37 111.736 109.441 115.864C108.511 119.906 108.046 124.12 108.046 128.506C104.073 128.506 101.241 127.603 99.5503 125.797C97.8597 123.905 97.0144 121.626 97.0144 118.96C97.0144 116.466 97.6061 114.402 98.7895 112.768C100.058 111.048 101.495 110.188 103.101 110.188C102.424 109.5 102.002 108.597 101.833 107.479C101.664 106.275 101.579 105.329 101.579 104.641C101.579 101.717 102.763 99.2229 105.129 97.1589C107.581 95.0089 110.708 93.289 114.512 91.999C118.401 90.623 122.67 89.634 127.319 89.032C132.053 88.344 136.702 88 141.267 88Z" fill="white"/>
<path d="M216.383 119.648C215.087 119.446 214.136 119.584 213.53 120.064C212.931 120.502 212.575 121.087 212.46 121.821C214.273 122.105 215.619 122.692 216.497 123.581C217.425 124.434 217.785 125.53 217.576 126.868L211.47 165.924C211.308 166.96 210.941 167.743 210.372 168.273C209.846 168.81 209.236 169.179 208.541 169.38C207.853 169.538 207.113 169.6 206.322 169.564C205.575 169.536 204.92 169.477 204.358 169.39L203.934 172.11C204.452 172.191 205.124 172.274 205.951 172.359C206.828 172.408 207.727 172.46 208.647 172.516C209.568 172.571 210.441 172.641 211.269 172.727C212.146 172.775 212.843 172.84 213.361 172.921C213.879 173.002 214.542 173.15 215.349 173.364C216.205 173.542 217.081 173.746 217.975 173.974C218.868 174.202 219.718 174.423 220.524 174.638C221.381 174.816 222.069 174.945 222.587 175.026L223.013 172.307C222.495 172.226 221.875 172.084 221.154 171.883C220.434 171.682 219.748 171.398 219.098 171.031C218.497 170.628 218.007 170.086 217.627 169.407C217.247 168.728 217.137 167.871 217.299 166.835L219.03 155.76L227.217 148.812L237.118 167.811C237.294 168.103 237.555 168.697 237.901 169.592C238.255 170.443 238.374 171.236 238.26 171.97C238.165 172.574 237.874 173.016 237.389 173.294C236.946 173.578 236.409 173.76 235.777 173.838C235.146 173.916 234.478 173.944 233.774 173.923C233.12 173.865 232.533 173.795 232.015 173.714L231.59 176.435C232.108 176.516 232.824 176.606 233.737 176.704C234.701 176.766 235.707 176.835 236.757 176.91C237.807 176.986 238.81 177.076 239.767 177.182C240.73 177.244 241.471 177.315 241.989 177.396C242.507 177.477 243.257 177.639 244.236 177.881C245.266 178.086 246.335 178.319 247.444 178.581C248.553 178.843 249.598 179.095 250.577 179.337C251.606 179.542 252.38 179.685 252.898 179.766L253.324 177.046C252.763 176.958 252.104 176.788 251.347 176.537C250.64 176.25 249.903 175.869 249.137 175.396C248.377 174.879 247.652 174.279 246.963 173.596C246.273 172.913 245.69 172.114 245.214 171.199L231.662 144.995L241.076 136.979C241.795 136.339 242.7 135.507 243.789 134.483C244.928 133.423 246.125 132.416 247.38 131.462C248.635 130.508 249.909 129.711 251.203 129.073C252.54 128.442 253.792 128.217 254.958 128.399C255.174 128.433 255.322 128.478 255.401 128.535C255.488 128.549 255.596 128.566 255.726 128.586C255.831 127.629 255.546 126.899 254.873 126.396C254.25 125.856 253.441 125.509 252.448 125.354C251.326 125.178 250.299 125.238 249.368 125.535C248.481 125.839 247.755 126.234 247.192 126.721C246.832 125.912 246.326 125.325 245.676 124.958C245.075 124.555 244.415 124.252 243.694 124.051C243.263 123.983 242.803 123.956 242.314 123.968C241.826 123.98 241.348 124.061 240.883 124.209C240.461 124.364 240.071 124.591 239.715 124.889C239.366 125.144 239.136 125.484 239.025 125.908C239.364 126.005 239.77 126.092 240.245 126.166C240.72 126.24 241.167 126.354 241.585 126.508C242.053 126.625 242.422 126.816 242.69 127.079C243.009 127.306 243.138 127.613 243.077 128.002C243.01 128.434 242.727 128.965 242.23 129.595C241.734 130.225 241.145 130.885 240.462 131.574C239.779 132.264 239.099 132.932 238.423 133.578C237.747 134.224 237.181 134.733 236.725 135.104L219.973 149.736L223.405 127.779C223.602 126.524 224.208 125.625 225.227 125.082L225.436 124.979C225.681 124.857 225.94 124.754 226.213 124.671L226.188 124.831L226.522 124.587C227.466 124.357 228.564 124.339 229.817 124.535C229.932 123.801 229.771 123.135 229.334 122.536C228.904 121.894 228.04 121.471 226.745 121.269C225.623 121.093 224.578 121.128 223.61 121.375C222.686 121.629 221.899 121.992 221.25 122.466C220.776 121.817 220.116 121.228 219.271 120.697C218.468 120.174 217.505 119.824 216.383 119.648ZM334.084 157.552C334.084 155 334.39 152.806 335.002 150.969C335.665 149.081 336.506 147.524 337.525 146.299C338.545 145.074 339.693 144.181 340.968 143.62C342.242 143.008 343.542 142.701 344.868 142.701C347.774 142.701 350.12 144.003 351.904 146.605C353.689 149.157 354.581 152.857 354.581 157.705L354.574 158.338C354.541 159.817 354.39 161.316 354.122 162.834L354.015 163.477C353.736 164.961 353.262 166.33 352.593 167.58C351.879 168.958 350.885 170.106 349.61 171.024C348.387 171.943 346.78 172.402 344.792 172.402C342.957 172.402 341.35 172.019 339.974 171.254C338.648 170.437 337.551 169.34 336.685 167.962C335.818 166.584 335.155 165.002 334.696 163.216C334.339 161.653 334.138 160.012 334.094 158.293L334.084 157.552ZM311.735 135.074C306.678 133.039 302.184 132.954 298.251 134.821C294.318 136.689 291.306 140.222 289.214 145.418L289.03 145.887C288.133 148.226 287.594 150.497 287.415 152.699C287.271 155.067 287.55 157.255 288.251 159.263C288.971 161.224 290.138 163.014 291.75 164.634C293.381 166.207 295.473 167.507 298.024 168.534C299.509 169.132 300.98 169.563 302.438 169.826C303.941 170.108 305.306 170.199 306.532 170.1C307.823 169.972 308.93 169.636 309.851 169.09C310.818 168.563 311.497 167.811 311.89 166.837C312.319 165.77 312.288 164.841 311.798 164.051C311.307 163.26 310.528 162.65 309.461 162.221C308.502 163.398 307.576 164.292 306.684 164.903C305.856 165.487 305.024 165.879 304.188 166.082C303.416 166.257 302.645 166.297 301.874 166.202C301.122 166.061 300.398 165.851 299.702 165.571C297.986 164.88 296.655 163.967 295.71 162.832C294.83 161.669 294.253 160.358 293.978 158.899C293.767 157.413 293.835 155.769 294.183 153.968C294.53 152.167 295.097 150.292 295.881 148.344L295.993 148.065C296.79 148.764 297.792 149.49 298.997 150.245C300.249 151.019 301.641 151.714 303.172 152.33C304.517 152.872 305.98 153.325 307.558 153.69C309.201 154.028 310.779 154.125 312.293 153.979C313.872 153.806 315.304 153.331 316.587 152.554C317.79 151.825 318.734 150.684 319.416 149.13L319.549 148.813C320.034 147.607 320.237 146.502 320.155 145.499C320.139 144.468 319.918 143.543 319.492 142.725C319.113 141.925 318.609 141.237 317.979 140.66C317.395 140.102 316.755 139.682 316.059 139.402C316.245 138.938 316.232 138.502 316.02 138.093C315.825 137.637 315.501 137.237 315.047 136.893C314.611 136.502 314.101 136.161 313.517 135.872C312.932 135.583 312.338 135.317 311.735 135.074ZM224.613 158.891L223.457 166.281C223.668 166.33 223.827 166.36 223.939 166.378L230.108 167.343L225.368 158.249L224.613 158.891ZM321.277 156.541C320.79 156.956 320.266 157.342 319.696 157.687C318.451 158.441 317.132 159.005 315.76 159.396C316.074 159.736 316.37 160.103 316.644 160.501L316.896 160.888L317.054 161.15C318.103 162.976 318.34 164.882 318.105 166.632H321.277V156.541ZM161.627 136C159.875 136 158.351 136.438 157.056 137.314C155.799 138.152 154.809 139.238 154.085 140.571V136.571H152.656C152.123 136.914 151.608 137.238 151.113 137.543C150.656 137.848 150.142 138.114 149.571 138.343C149 138.571 148.352 138.742 147.628 138.856C146.942 138.971 146.124 139.028 145.172 139.028V140.457C146.048 140.457 146.733 140.571 147.229 140.8C147.723 140.99 148.105 141.352 148.371 141.885C148.638 142.38 148.79 143.104 148.828 144.057C148.904 144.971 148.942 146.133 148.942 147.542V157.083C148.942 158.569 148.542 159.598 147.742 160.169C146.942 160.74 146.028 161.025 145 161.025V162.74C145.457 162.74 145.952 162.721 146.485 162.683C147.057 162.606 147.647 162.53 148.257 162.454C148.866 162.378 149.437 162.32 149.971 162.282C150.542 162.206 151.057 162.168 151.514 162.168C151.971 162.168 152.466 162.206 152.999 162.282C153.57 162.32 154.161 162.378 154.771 162.454C155.38 162.53 155.951 162.606 156.484 162.683C157.056 162.721 157.57 162.74 158.027 162.74V161.025C157.57 161.025 157.094 160.969 156.599 160.854C156.142 160.702 155.723 160.474 155.342 160.169C154.999 159.864 154.694 159.464 154.428 158.969C154.199 158.474 154.085 157.845 154.085 157.083V148.97C154.085 147.142 154.275 145.58 154.656 144.285C155.075 142.952 155.627 141.885 156.312 141.085C156.998 140.247 157.779 139.638 158.655 139.257C159.569 138.876 160.522 138.686 161.513 138.686C162.503 138.686 163.379 138.914 164.141 139.371C164.902 139.79 165.531 140.514 166.026 141.542C166.522 142.57 166.883 143.942 167.111 145.656C167.378 147.37 167.512 149.504 167.512 152.056C167.512 152.97 167.492 153.941 167.454 154.969C167.454 155.997 167.416 156.969 167.34 157.883C167.302 158.797 167.207 159.616 167.055 160.34C166.902 161.025 166.692 161.502 166.426 161.769L166.94 162.74C167.817 162.512 168.559 162.378 169.169 162.34C169.816 162.264 170.388 162.226 170.883 162.226C171.606 162.226 172.216 162.264 172.711 162.34C173.244 162.378 173.701 162.435 174.082 162.511C174.501 162.549 174.901 162.606 175.282 162.683C175.663 162.721 176.102 162.74 176.597 162.74V160.74C176.14 160.74 175.663 160.683 175.168 160.568C174.711 160.416 174.292 160.188 173.911 159.883C173.568 159.578 173.264 159.178 172.997 158.683C172.769 158.188 172.654 157.559 172.654 156.798V150.798C172.654 145.503 171.759 141.713 169.969 139.428C168.179 137.142 165.398 136 161.627 136ZM299.864 157.444C299.871 157.612 299.885 157.769 299.901 157.915C300.002 158.365 300.167 158.741 300.404 159.085C300.616 159.303 301.056 159.648 301.942 160.005C302.189 160.104 302.448 160.186 302.722 160.25C302.748 160.249 302.775 160.243 302.806 160.238C302.865 160.216 303.005 160.156 303.228 159.999L303.261 159.975L303.295 159.952C303.495 159.815 303.828 159.537 304.284 159.039C303.128 158.709 302.009 158.329 300.932 157.896C300.571 157.75 300.216 157.599 299.864 157.444ZM200.399 154C199.181 154 198.133 154.438 197.257 155.314C196.419 156.152 196 157.181 196 158.399C196 159.618 196.419 160.666 197.257 161.542C198.133 162.38 199.181 162.799 200.399 162.799C201.506 162.799 202.463 162.431 203.269 161.694L203.428 161.542C204.249 160.721 204.685 159.749 204.736 158.626L204.742 158.399C204.742 157.257 204.357 156.282 203.587 155.474L203.269 155.155C202.463 154.385 201.506 154 200.399 154ZM254.215 135.951C252.933 135.894 251.53 136.066 250.007 136.466C249.296 136.652 248.61 136.869 247.95 137.113C247.291 137.358 246.695 137.64 246.163 137.958C245.657 138.234 245.269 138.55 245.001 138.906C244.733 139.263 244.647 139.625 244.743 139.993C243.897 140.215 243.306 140.656 242.973 141.315C242.664 141.933 242.598 142.576 242.773 143.245C242.949 143.914 243.327 144.458 243.907 144.877C244.479 145.263 245.239 145.332 246.188 145.083C246.797 144.923 247.321 144.643 247.759 144.242C247.543 143.834 247.391 143.462 247.303 143.128C247.157 142.572 247.152 142.075 247.286 141.637L247.353 141.453C247.543 140.938 247.827 140.506 248.206 140.156C248.576 139.773 249.002 139.465 249.483 139.231C249.999 138.989 250.477 138.81 250.917 138.694C251.933 138.428 252.82 138.427 253.577 138.692C254.335 138.958 254.975 139.398 255.498 140.012C256.021 140.625 256.448 141.353 256.777 142.196C257.141 143.03 257.437 143.882 257.665 144.752L258.152 146.608C257.277 146.445 256.279 146.367 255.159 146.375C254.064 146.341 252.789 146.514 251.333 146.896C250.046 147.234 248.922 147.708 247.96 148.318C246.989 148.895 246.193 149.586 245.572 150.393C244.943 151.166 244.522 152.045 244.31 153.03C244.123 153.973 244.17 154.98 244.451 156.05C244.741 157.153 245.207 158.103 245.851 158.899C246.485 159.662 247.241 160.268 248.119 160.717C249.031 161.157 250.039 161.411 251.143 161.479C252.28 161.537 253.476 161.402 254.729 161.073C256.286 160.664 257.519 159.984 258.427 159.03C259.326 158.044 260.051 157.013 260.602 155.939L261.3 158.598C262.026 158.193 262.672 157.898 263.239 157.714C263.806 157.529 264.479 157.334 265.258 157.13C266.037 156.925 266.715 156.819 267.292 156.811C267.903 156.793 268.597 156.683 269.376 156.479L268.981 154.973C268.575 155.079 268.138 155.141 267.672 155.156C267.23 155.129 266.805 155.026 266.396 154.848C266.022 154.66 265.659 154.379 265.308 154.007C264.99 153.625 264.743 153.101 264.567 152.432L262.632 145.057C262.061 142.883 261.371 141.151 260.562 139.862C259.745 138.54 258.803 137.571 257.737 136.957C256.696 136.301 255.522 135.966 254.215 135.951ZM255.812 148.241C256.822 148.226 257.764 148.3 258.64 148.464L259.957 153.48C259.602 154.61 259.076 155.643 258.38 156.576C257.675 157.476 256.73 158.081 255.545 158.393C254.021 158.793 252.675 158.627 251.506 157.897C250.337 157.168 249.55 156.034 249.146 154.495C248.76 153.024 248.936 151.762 249.674 150.71C250.445 149.65 251.508 148.942 252.862 148.587C253.81 148.338 254.794 148.223 255.812 148.241ZM160.868 144.99C160.85 145.011 160.64 145.277 160.398 146.027C160.231 146.621 160.085 147.566 160.085 148.97V155.025H161.453C161.453 155.007 161.454 154.988 161.454 154.969V154.858L161.459 154.747C161.495 153.784 161.512 152.887 161.512 152.056C161.512 149.683 161.385 147.881 161.183 146.578L161.173 146.514L161.164 146.449C161.08 145.816 160.981 145.33 160.89 144.965L160.868 144.99ZM302.993 138.51C305.067 137.242 307.357 137.113 309.862 138.121C311.44 138.756 312.575 139.752 313.269 141.109C313.981 142.42 313.87 144.236 312.937 146.556L312.786 146.912C312.018 148.647 311.007 149.692 309.753 150.046C308.461 150.442 306.562 150.136 304.057 149.128C302.804 148.624 301.51 148.022 300.174 147.322C298.903 146.595 297.976 145.817 297.393 144.989C299.052 141.937 300.919 139.778 302.993 138.51ZM307.595 143.677C306.814 143.367 306.496 143.429 306.265 143.548C306.275 143.552 306.286 143.557 306.297 143.562C306.771 143.752 307.168 143.889 307.494 143.988C307.535 143.875 307.566 143.771 307.595 143.677ZM276.403 122C275.748 122.423 275.117 122.822 274.509 123.198C273.947 123.574 273.316 123.903 272.614 124.185C271.913 124.466 271.117 124.677 270.229 124.818C269.387 124.959 268.38 125.029 267.211 125.029V126.791C268.287 126.791 269.129 126.932 269.737 127.214C270.345 127.449 270.813 127.895 271.141 128.553C271.468 129.163 271.655 130.056 271.702 131.229L271.763 132.133C271.815 133.093 271.842 134.224 271.842 135.527V172.024C271.842 173.856 271.351 175.125 270.368 175.829C269.386 176.534 268.263 176.887 267 176.887V179C267.561 179 268.169 178.977 268.824 178.93C269.526 178.836 270.251 178.741 271 178.647C271.749 178.554 272.451 178.483 273.105 178.437C273.807 178.343 274.439 178.296 275 178.296C275.561 178.296 276.169 178.343 276.824 178.437C277.526 178.483 278.251 178.554 279 178.647C279.749 178.741 280.45 178.836 281.105 178.93C281.807 178.977 282.439 179 283 179V176.887C282.439 176.887 281.854 176.816 281.246 176.675C280.685 176.487 280.17 176.205 279.702 175.829C279.281 175.453 278.907 174.96 278.579 174.35C278.334 173.815 278.195 173.155 278.164 172.369L278.158 172.024V122H276.403ZM228.447 134.366L232.305 130.997L229.054 130.489L228.447 134.366ZM226.188 124.831L226.213 124.671C226.314 124.64 226.417 124.613 226.522 124.587L226.188 124.831ZM145.364 179.46C145.364 180.485 145.509 180.966 145.565 181.116C145.798 181.416 145.994 181.593 146.14 181.701C146.716 181.924 147.3 182.074 147.901 182.156C149.06 182.302 149.966 182.361 150.649 182.361H156.649V196.229C159.993 194.283 162.759 191.73 165.001 188.541C167.844 184.411 170.025 179.206 171.412 172.776L171.419 172.743L171.427 172.71C171.748 171.298 172.034 169.836 172.288 168.324C172.287 168.324 172.285 168.324 172.283 168.324L172.04 168.308L171.799 168.271C171.706 168.256 171.423 168.226 170.883 168.226C170.682 168.226 170.353 168.242 169.87 168.299L169.707 168.318L169.543 168.328C169.455 168.334 169.118 168.373 168.455 168.546L163.859 169.744L163.328 168.74H158.027C157.409 168.74 156.758 168.714 156.085 168.669L155.859 168.654L155.636 168.622C155.142 168.551 154.606 168.481 154.026 168.408C153.523 168.345 153.048 168.299 152.6 168.27L152.374 168.254L152.15 168.223C151.85 168.18 151.642 168.168 151.514 168.168C151.38 168.168 151.137 168.181 150.764 168.23L150.582 168.254L150.398 168.268C149.985 168.297 149.52 168.343 149.001 168.408C148.407 168.482 147.832 168.556 147.278 168.63L147.097 168.654L146.913 168.667C146.388 168.705 145.87 168.728 145.364 168.736V179.46ZM265.842 135.527C265.842 134.45 265.82 133.542 265.786 132.791H262.251C263.645 133.895 264.767 135.252 265.666 136.707C265.726 136.802 265.784 136.898 265.842 136.995V135.527ZM340.084 157.552C340.084 159.103 340.241 160.518 340.53 161.812C340.852 163.033 341.279 163.999 341.763 164.768C342.131 165.353 342.541 165.76 342.999 166.065C343.353 166.239 343.904 166.402 344.792 166.402C345.623 166.402 345.948 166.257 346.013 166.222L346.055 166.19L346.103 166.156C346.623 165.781 346.99 165.351 347.266 164.819L347.284 164.784L347.303 164.748C347.715 163.978 348.024 163.067 348.187 161.961L348.198 161.876L348.214 161.792C348.462 160.385 348.581 159.024 348.581 157.705C348.581 153.451 347.774 151.168 346.987 150.044L346.972 150.021L346.956 149.998C346.177 148.862 345.604 148.701 344.868 148.701C344.501 148.701 344.085 148.779 343.565 149.028L343.477 149.071L343.386 149.11C343.075 149.247 342.649 149.523 342.137 150.138C341.681 150.685 341.161 151.554 340.683 152.902C340.334 153.967 340.084 155.477 340.084 157.552ZM127.953 179.46L127.948 179.842C127.904 181.727 127.525 183.233 126.812 184.362L126.519 184.8C125.816 185.787 124.984 186.545 124.022 187.071L123.604 187.257C122.615 187.671 121.528 187.953 120.345 188.104C118.992 188.275 117.767 188.361 116.668 188.361V193.779C117.682 193.779 118.95 193.736 120.472 193.65C121.993 193.478 123.557 193.306 125.163 193.134C126.769 192.962 128.333 192.833 129.854 192.747C131.376 192.575 132.645 192.489 133.659 192.489L134.051 192.493C134.994 192.512 136.131 192.597 137.463 192.747C138.984 192.833 140.548 192.962 142.154 193.134C143.76 193.306 145.324 193.478 146.846 193.65C148.367 193.736 149.635 193.779 150.649 193.779V188.361C149.635 188.361 148.452 188.275 147.1 188.104C145.832 187.932 144.605 187.587 143.422 187.071C142.323 186.469 141.351 185.566 140.506 184.362C139.745 183.158 139.364 181.524 139.364 179.46V102.319H136.194C135.011 103.093 133.87 103.824 132.771 104.512C131.757 105.2 130.616 105.801 129.348 106.317C128.08 106.833 126.642 107.221 125.036 107.479C123.515 107.736 121.697 107.866 119.584 107.866V112.381C121.528 112.381 123.051 112.639 124.149 113.155C125.248 113.585 126.093 114.402 126.685 115.605C127.276 116.723 127.615 118.358 127.699 120.508C127.868 122.572 127.953 125.195 127.953 128.377V179.46ZM331.866 113C331.152 113.459 330.49 113.893 329.878 114.302C329.266 114.71 328.603 115.067 327.889 115.373C327.175 115.679 326.359 115.908 325.441 116.062C324.575 116.215 323.504 116.292 322.229 116.292V118.588C323.402 118.588 324.32 118.767 324.982 119.124C325.645 119.481 326.156 120.298 326.513 121.573C326.87 122.849 327.073 124.712 327.124 127.161C327.226 129.611 327.277 132.929 327.277 137.113V167.35L327.269 167.725C327.229 168.578 327.054 169.296 326.742 169.876C326.436 170.539 326.028 171.075 325.519 171.483C325.06 171.892 324.499 172.198 323.836 172.402C323.224 172.555 322.612 172.632 322 172.632V174.929C322.612 174.929 323.148 174.903 323.606 174.852C324.116 174.801 324.651 174.749 325.212 174.698C325.824 174.596 326.487 174.52 327.201 174.469C327.915 174.367 328.781 174.316 329.801 174.316C330.515 174.316 331.127 174.367 331.637 174.469C332.147 174.52 332.962 174.674 334.084 174.929V170.565C336.48 174.189 340.075 176 344.868 176C347.366 176 349.661 175.541 351.751 174.622C353.841 173.704 355.652 172.428 357.182 170.795C358.711 169.111 359.884 167.095 360.7 164.747C361.513 162.546 361.944 160.121 361.995 157.472L362 156.939C362 154.082 361.592 151.556 360.776 149.361C359.961 147.116 358.814 145.252 357.335 143.772C355.907 142.241 354.198 141.094 352.21 140.328C350.222 139.512 348.054 139.104 345.709 139.104C342.956 139.104 340.662 139.639 338.826 140.711C337.042 141.783 335.486 143.288 334.16 145.228V113H331.866ZM97.0244 119.455C97.1235 121.909 97.9658 124.023 99.5508 125.797C101.136 127.49 103.724 128.389 107.314 128.495L108.046 128.506C108.046 124.12 108.511 119.906 109.44 115.864C110.37 111.736 112.019 108.08 114.386 104.898C116.837 101.631 120.092 99.0511 124.149 97.1592C128.207 95.1813 133.405 94.1924 139.745 94.1924L140.439 94.1963C147.574 94.2927 153.597 95.8825 158.511 98.9648C163.667 102.061 167.81 106.189 170.938 111.349C174.065 116.509 176.305 122.443 177.657 129.15C179.01 135.858 179.687 142.782 179.687 149.92L179.677 151.601C179.583 159.95 178.783 167.431 177.277 174.042L176.98 175.352C175.445 181.837 173.093 187.378 169.923 191.974C166.542 196.789 162.146 200.445 156.736 202.938L156.233 203.176C151.005 205.597 144.706 206.808 137.336 206.808V200.808C141.295 200.808 144.79 200.424 147.861 199.708C147.427 199.689 146.975 199.667 146.507 199.641L146.339 199.631L146.172 199.612C144.663 199.442 143.111 199.27 141.516 199.1C140.004 198.938 138.54 198.817 137.124 198.737L136.956 198.729L136.789 198.709C135.391 198.551 134.366 198.489 133.659 198.489C132.952 198.489 131.927 198.551 130.529 198.709L130.361 198.729L130.193 198.737C128.898 198.811 127.562 198.919 126.186 199.061C126.192 199.063 126.199 199.066 126.206 199.068L126.829 199.276L126.896 199.297L126.964 199.32C128.608 199.878 130.125 200.22 131.524 200.382L132.117 200.44L132.224 200.449L132.329 200.462C134.375 200.702 136.032 200.808 137.336 200.808V206.808C135.73 206.808 133.828 206.679 131.63 206.421C129.517 206.249 127.318 205.776 125.036 205.002C122.839 204.314 120.641 203.282 118.443 201.906C116.33 200.53 114.428 198.681 112.737 196.359C111.047 194.037 109.652 191.156 108.553 187.716C107.538 184.276 107.031 180.148 107.031 175.332C107.031 173.096 107.159 170.774 107.412 168.366C107.75 165.872 108.384 163.55 109.313 161.4L108.553 160.756C105.848 161.272 103.651 162.175 101.96 163.465C100.354 164.755 99.0851 166.217 98.1553 167.851L97.8506 168.435C97.1664 169.808 96.6768 171.247 96.3809 172.752L96.291 173.357C96.0969 174.749 96 176.01 96 177.139L96.0078 177.751C96.0448 179.181 96.211 180.61 96.5068 182.04C96.8449 183.588 97.2258 185.007 97.6484 186.297C98.0711 187.501 98.5358 188.534 99.043 189.394C99.55 190.253 100.015 190.812 100.438 191.07C99.1698 191.5 98.5361 192.748 98.5361 194.812L98.5479 195.355C98.6717 198.056 99.7249 200.455 101.706 202.551C103.819 204.873 106.608 206.808 110.074 208.356C113.54 209.904 117.513 211.065 121.993 211.839C126.273 212.564 130.664 212.95 135.166 212.995L136.068 213C145.028 213 153.016 211.71 160.032 209.13C166.911 206.714 172.759 203.007 177.575 198.008L178.038 197.521C182.788 192.439 186.427 186.105 188.955 178.521L189.196 177.783C191.732 169.871 193 160.54 193 149.79C193 141.104 192.071 133.021 190.211 125.539C188.436 117.971 185.477 111.435 181.335 105.931C177.404 100.515 172.283 96.2306 165.973 93.0752L165.358 92.7734C158.765 89.5915 150.734 88 141.267 88C136.702 88 132.053 88.3443 127.319 89.0322C122.67 89.6342 118.401 90.6231 114.513 91.999C110.709 93.289 107.581 95.0093 105.13 97.1592C102.763 99.2231 101.579 101.717 101.579 104.641C101.579 105.329 101.664 106.275 101.833 107.479C102.002 108.596 102.424 109.5 103.101 110.188C101.495 110.188 100.057 111.048 98.7891 112.768C97.6057 114.402 97.0146 116.466 97.0146 118.96L97.0244 119.455ZM340.16 133.762C341.947 133.304 343.814 133.104 345.709 133.104C348.719 133.104 351.626 133.624 354.365 134.729C354.375 134.732 354.386 134.736 354.396 134.74C354.427 134.753 354.458 134.765 354.489 134.777C357.235 135.854 359.649 137.476 361.667 139.623C363.801 141.788 365.358 144.4 366.416 147.312C367.518 150.293 368 153.536 368 156.939C368 160.366 367.483 163.647 366.366 166.716L366.367 166.717C365.311 169.757 363.745 172.493 361.623 174.829L361.592 174.863L361.561 174.896C359.465 177.134 356.982 178.877 354.165 180.115C351.245 181.398 348.119 182 344.868 182C343.206 182 341.606 181.831 340.084 181.489V182.446L332.753 180.779C332.241 180.663 331.835 180.578 331.524 180.52C331.37 180.491 331.251 180.47 331.163 180.456C331.081 180.443 331.043 180.44 331.039 180.439L330.747 180.41L330.459 180.353C330.454 180.352 330.403 180.342 330.297 180.333C330.181 180.323 330.017 180.316 329.801 180.316C328.959 180.316 328.394 180.359 328.05 180.408L327.84 180.438L327.629 180.454C327.075 180.494 326.6 180.55 326.199 180.617L325.979 180.653L325.756 180.674C325.211 180.723 324.694 180.773 324.204 180.822L324.203 180.821C323.487 180.898 322.744 180.929 322 180.929H316V171.601C315.156 172.678 314.109 173.565 312.91 174.249L312.911 174.25C311.093 175.328 309.104 175.875 307.121 176.07L307.018 176.08C305.162 176.231 303.264 176.082 301.371 175.729C299.481 175.388 297.617 174.839 295.783 174.101C292.665 172.845 289.876 171.163 287.585 168.953L287.541 168.911L287.498 168.867C286.195 167.559 285.074 166.127 284.158 164.574V170.887H289V185H283C282.277 185 281.508 184.97 280.704 184.916L280.479 184.901L280.253 184.869C279.637 184.781 278.971 184.691 278.253 184.601C277.611 184.52 277.002 184.462 276.424 184.423L276.197 184.408L275.973 184.376C275.551 184.316 275.231 184.296 275 184.296C274.763 184.296 274.404 184.317 273.901 184.384L273.719 184.408L273.534 184.421C273 184.459 272.405 184.518 271.747 184.601C271.014 184.693 270.305 184.785 269.621 184.877L269.438 184.901L269.254 184.914C268.479 184.97 267.726 185 267 185H261V170.887H265.842V163.191C265.559 163.273 265.311 163.349 265.097 163.419C265.012 163.447 264.731 163.554 264.223 163.838L257.462 167.609L257.196 166.598C256.884 166.7 256.569 166.794 256.252 166.877C254.482 167.342 252.665 167.566 250.832 167.471L250.804 167.469L250.774 167.468C250.517 167.452 250.26 167.428 250.004 167.399L250.536 168.429C250.743 168.827 250.964 169.114 251.185 169.333C251.595 169.739 252.006 170.078 252.414 170.364C252.812 170.604 253.155 170.781 253.443 170.908C253.875 171.044 254.135 171.099 254.251 171.117L260.179 172.045L257.899 186.621L251.972 185.694C251.325 185.593 250.452 185.43 249.404 185.221L249.271 185.194L249.141 185.162C248.183 184.926 247.157 184.679 246.065 184.421C245.019 184.174 244.018 183.955 243.063 183.765L242.931 183.738L242.799 183.706C241.864 183.476 241.318 183.364 241.062 183.324C240.814 183.285 240.286 183.228 239.381 183.17L239.245 183.161L239.11 183.146C238.235 183.049 237.307 182.965 236.326 182.895C235.29 182.82 234.298 182.753 233.351 182.691L233.222 182.683L233.094 182.669C232.144 182.566 231.32 182.465 230.663 182.362L221.66 180.955C221 180.852 220.202 180.699 219.303 180.512L219.142 180.479L218.982 180.437C218.197 180.227 217.365 180.011 216.489 179.787C215.679 179.58 214.891 179.397 214.127 179.238L213.966 179.205L213.807 179.163C213.099 178.975 212.661 178.884 212.435 178.849C212.2 178.812 211.728 178.761 210.937 178.717L210.795 178.709L210.654 178.694C209.92 178.619 209.131 178.556 208.287 178.505C207.376 178.45 206.486 178.399 205.619 178.351L205.479 178.343L205.338 178.328C204.459 178.238 203.671 178.142 203.007 178.038L197.079 177.111L198.406 168.615C198.126 168.563 197.85 168.497 197.577 168.423C196.922 172.368 196.036 176.101 194.91 179.614C192.146 188.238 188.018 195.629 182.422 201.617C176.846 207.584 170.036 211.961 162.103 214.761C154.306 217.627 145.598 219 136.068 219C130.928 219 125.899 218.587 120.99 217.755L120.981 217.753L120.972 217.751C116.094 216.908 111.628 215.621 107.628 213.834C103.598 212.034 100.108 209.68 97.3457 206.672C94.2403 203.386 92.5362 199.354 92.5361 194.812C92.5361 193.701 92.6767 192.348 93.1064 190.999C92.6876 190.133 92.3169 189.223 91.9873 188.284L91.9658 188.226L91.9463 188.165C91.451 186.653 91.02 185.035 90.6455 183.32L90.6318 183.256C90.2127 181.231 90 179.19 90 177.139C90 175.469 90.1628 173.69 90.4512 171.832L90.4697 171.713L90.4932 171.595C90.9502 169.27 91.7526 167.057 92.8896 164.975L92.9404 164.883C94.2783 162.532 96.0634 160.504 98.2021 158.786L98.2607 158.739L98.3203 158.694C100.936 156.699 104.07 155.502 107.429 154.861L110.245 154.324L116.586 159.7L114.82 163.782C114.132 165.373 113.641 167.136 113.369 169.098C113.143 171.276 113.031 173.354 113.031 175.332C113.031 177.992 113.203 180.327 113.514 182.361H116.668C117.462 182.361 118.43 182.299 119.588 182.151C120.27 182.065 120.812 181.914 121.245 181.737C121.339 181.667 121.473 181.544 121.634 181.316L121.731 181.169C121.744 181.139 121.953 180.693 121.953 179.46V128.377C121.953 125.282 121.87 122.837 121.72 120.998L121.709 120.871L121.704 120.743C121.671 119.909 121.593 119.303 121.507 118.886C121.475 118.73 121.443 118.616 121.419 118.537C121.356 118.523 121.278 118.507 121.181 118.49C120.823 118.43 120.302 118.381 119.584 118.381H115.035C114.38 121.605 114.046 124.977 114.046 128.506V134.506H108.046C103.389 134.506 98.5236 133.48 95.1699 129.897L95.123 129.847L95.0762 129.795C92.3497 126.744 91.0147 123.019 91.0146 118.96C91.0146 115.505 91.8459 112.126 93.9307 109.248L93.96 109.207C94.4835 108.497 95.0803 107.814 95.749 107.192C95.6457 106.289 95.5791 105.423 95.5791 104.641C95.5792 99.8431 97.6216 95.7447 101.186 92.6367C104.348 89.8669 108.209 87.8007 112.586 86.3164C116.884 84.8021 121.525 83.737 126.485 83.0908C131.481 82.3661 136.409 82 141.267 82C151.382 82 160.357 83.6972 167.966 87.3691C175.365 90.9399 181.462 95.9228 186.129 102.323L186.565 102.912C191.021 109.012 194.151 116.107 196.033 124.092L196.395 125.6C198.026 132.672 198.882 140.176 198.988 148.094C199.45 148.033 199.921 148 200.399 148C203.175 148 205.662 149.074 207.574 150.979L207.712 151.115L211.369 127.724L205.604 126.822L206.531 120.895C206.879 118.67 208.026 116.734 209.804 115.363L210.047 115.177C212.581 113.319 215.511 113.439 217.31 113.72C219.028 113.988 220.738 114.548 222.306 115.518C224.103 115.087 225.915 115.066 227.672 115.341C229.483 115.624 232.337 116.413 234.182 118.999L234.43 119.357C234.747 119.839 235.011 120.343 235.224 120.864C235.467 120.619 235.727 120.388 236.006 120.173C236.84 119.499 237.781 118.956 238.814 118.576L238.937 118.531L239.062 118.492C240.069 118.171 241.109 117.996 242.166 117.97L242.773 117.967C243.384 117.977 244.002 118.026 244.621 118.123L244.969 118.178L245.308 118.271C246.387 118.573 247.421 119.011 248.393 119.584C250.069 119.185 251.755 119.173 253.375 119.426C255.17 119.706 257.023 120.39 258.627 121.716C259.887 122.704 260.724 123.921 261.211 125.222V119.029H267.211C268.161 119.029 268.818 118.971 269.238 118.9L269.289 118.893C269.815 118.809 270.164 118.702 270.378 118.616C270.738 118.472 270.994 118.33 271.171 118.212L271.262 118.151L271.355 118.094C271.927 117.741 272.525 117.362 273.149 116.959L274.636 116H284.158V141.973C286.656 136.359 290.399 131.908 295.677 129.401C301.488 126.642 307.783 127.015 313.976 129.508C314.722 129.808 315.456 130.137 316.178 130.494C317.118 130.959 318.02 131.539 318.85 132.25C319.792 132.999 320.65 133.964 321.271 135.168C321.257 131.941 321.211 129.362 321.13 127.411L321.127 127.349L321.126 127.286C321.102 126.143 321.042 125.257 320.97 124.588H316.229V110.292H322.229C323.295 110.292 323.991 110.225 324.398 110.153L324.426 110.148L324.454 110.144C324.988 110.055 325.328 109.943 325.523 109.859L325.81 109.729C326.085 109.596 326.33 109.456 326.548 109.311C327.191 108.881 327.882 108.429 328.619 107.954L330.103 107H340.16V133.762ZM145.364 133.024C145.988 133.017 146.4 132.979 146.642 132.938L146.692 132.931C147.055 132.873 147.258 132.806 147.343 132.771C147.573 132.679 147.712 132.6 147.785 132.551L147.876 132.49L147.969 132.433C148.428 132.15 148.909 131.848 149.412 131.524L150.895 130.571H157.483C158.825 130.183 160.217 130 161.627 130C165.537 130 169.314 130.959 172.33 133.348C172.161 132.339 171.978 131.335 171.776 130.337C170.543 124.219 168.53 118.952 165.807 114.459C163.183 110.13 159.74 106.702 155.423 104.109L155.372 104.079L155.322 104.048C152.606 102.344 149.323 101.146 145.364 100.574V133.024Z" fill="#9F9D9D"/>
</svg>
